<svg xmlns="http://www.w3.org/2000/svg" width="89" height="181" fill="none"><path fill="#7EDAD2" d="M20.08 87.2c-6.4 0-11.24-1.8-14.52-5.4C2.28 78.12.64 72.88.64 66.08v-4.8h12.48v5.76c0 5.44 2.28 8.16 6.84 8.16 2.24 0 3.92-.64 5.04-1.92 1.2-1.36 1.8-3.52 1.8-6.48 0-3.52-.8-6.6-2.4-9.24-1.6-2.72-4.56-5.96-8.88-9.72-5.44-4.8-9.24-9.12-11.4-12.96C1.96 30.96.88 26.56.88 21.68c0-6.64 1.68-11.76 5.04-15.36C9.28 2.64 14.16.8 20.56.8c6.32 0 11.08 1.84 14.28 5.52 3.28 3.6 4.92 8.8 4.92 15.6v3.48H27.28v-4.32c0-2.88-.56-4.96-1.68-6.24-1.12-1.36-2.76-2.04-4.92-2.04-4.4 0-6.6 2.68-6.6 8.04 0 3.04.8 5.88 2.4 8.52 1.68 2.64 4.68 5.84 9 9.6 5.52 4.8 9.32 9.16 11.4 13.08S40 60.56 40 65.84c0 6.88-1.72 12.16-5.16 15.84-3.36 3.68-8.28 5.52-14.76 5.52Zm0 93c-6.4 0-11.24-1.8-14.52-5.4-3.28-3.68-4.92-8.92-4.92-15.72v-4.8h12.48v5.76c0 5.44 2.28 8.16 6.84 8.16 2.24 0 3.92-.64 5.04-1.92 1.2-1.36 1.8-3.52 1.8-6.48 0-3.52-.8-6.6-2.4-9.24-1.6-2.72-4.56-5.96-8.88-9.72-5.44-4.8-9.24-9.12-11.4-12.96-2.16-3.92-3.24-8.32-3.24-13.2 0-6.64 1.68-11.76 5.04-15.36 3.36-3.68 8.24-5.52 14.64-5.52 6.32 0 11.08 1.84 14.28 5.52 3.28 3.6 4.92 8.8 4.92 15.6v3.48H27.28v-4.32c0-2.88-.56-4.96-1.68-6.24-1.12-1.36-2.76-2.04-4.92-2.04-4.4 0-6.6 2.68-6.6 8.04 0 3.04.8 5.88 2.4 8.52 1.68 2.64 4.68 5.84 9 9.6 5.52 4.8 9.32 9.16 11.4 13.08s3.12 8.52 3.12 13.8c0 6.88-1.72 12.16-5.16 15.84-3.36 3.68-8.28 5.52-14.76 5.52Z"/><path fill="#424241" d="M47.568 2h19.92c6.8 0 11.76 1.6 14.88 4.8 3.12 3.12 4.68 7.96 4.68 14.52v3.36c0 4.32-.72 7.84-2.16 10.56-1.36 2.72-3.48 4.68-6.36 5.88v.24c6.56 2.24 9.84 8.08 9.84 17.52v7.2c0 6.48-1.72 11.44-5.16 14.88-3.36 3.36-8.32 5.04-14.88 5.04h-20.76V2Zm18.36 34.2c2.64 0 4.6-.68 5.88-2.04 1.36-1.36 2.04-3.64 2.04-6.84v-4.68c0-3.04-.56-5.24-1.68-6.6-1.04-1.36-2.72-2.04-5.04-2.04h-6.36v22.2h5.16Zm2.4 37.8c2.32 0 4.04-.6 5.16-1.8 1.12-1.28 1.68-3.44 1.68-6.48V58.4c0-3.84-.68-6.48-2.04-7.92-1.28-1.52-3.44-2.28-6.48-2.28h-5.88V74h7.56Zm-20.76 21h19.44c6.56 0 11.48 1.76 14.76 5.28 3.28 3.52 4.92 8.68 4.92 15.48v8.28c0 6.8-1.64 11.96-4.92 15.48-3.28 3.52-8.2 5.28-14.76 5.28h-6.24V179h-13.2V95Zm19.44 37.8c2.16 0 3.76-.6 4.8-1.8 1.12-1.2 1.68-3.24 1.68-6.12v-9.96c0-2.88-.56-4.92-1.68-6.12-1.04-1.2-2.64-1.8-4.8-1.8h-6.24v25.8h6.24Z"/></svg>